<svg width="12" height="15" viewBox="0 0 12 15" fill="none" xmlns="http://www.w3.org/2000/svg">
<path d="M5.99625 2.00272e-05L11.4728 1.21335C11.6238 1.24891 11.7482 1.32891 11.8459 1.45335C11.9436 1.5778 11.9925 1.71558 11.9925 1.86669V8.52002C11.9925 9.19558 11.8348 9.82669 11.5195 10.4134C11.2041 11 10.7666 11.48 10.207 11.8534L5.99625 14.6667L1.78555 11.8534C1.2259 11.48 0.788396 11 0.473038 10.4134C0.157679 9.82669 0 9.19558 0 8.52002V1.86669C0 1.71558 0.0488583 1.5778 0.146575 1.45335C0.244292 1.32891 0.368658 1.24891 0.519675 1.21335L5.99625 2.00272e-05ZM5.99625 1.36002L1.3325 2.40002V8.52002C1.3325 8.97335 1.43688 9.39558 1.64564 9.78669C1.8544 10.1778 2.14532 10.4978 2.51842 10.7467L5.99625 13.0667L9.47408 10.7467C9.84718 10.4978 10.1381 10.1778 10.3469 9.78669C10.5556 9.39558 10.66 8.97335 10.66 8.52002V2.40002L5.99625 1.36002ZM8.96772 4.81335L9.90048 5.76002L5.66313 10L2.83823 7.17335L3.7843 6.22669L5.66313 8.12002L8.96772 4.81335Z" fill="#FACC15"/>
</svg>
